<svg xmlns="http://www.w3.org/2000/svg" xmlns:xlink="http://www.w3.org/1999/xlink" width="500" zoomAndPan="magnify" viewBox="0 0 375 374.999991" height="500" preserveAspectRatio="xMidYMid meet" version="1.0"><defs><g/><clipPath id="6f1aa2c298"><path d="M 201 7.355469 L 208 7.355469 L 208 17 L 201 17 Z M 201 7.355469 " clip-rule="nonzero"/></clipPath><clipPath id="24574b1db0"><path d="M 201 7.355469 L 210 7.355469 L 210 18 L 201 18 Z M 201 7.355469 " clip-rule="nonzero"/></clipPath><clipPath id="f66d0fff14"><path d="M 119 26 L 258.714844 26 L 258.714844 251 L 119 251 Z M 119 26 " clip-rule="nonzero"/></clipPath><clipPath id="6ed200b7df"><rect x="0" width="301" y="0" height="76"/></clipPath><clipPath id="1be588a7fd"><rect x="0" width="277" y="0" height="41"/></clipPath></defs><rect x="-37.5" width="450" fill="#ffffff" y="-37.499999" height="449.999989" fill-opacity="1"/><rect x="-37.5" width="450" fill="#000000" y="-37.499999" height="449.999989" fill-opacity="1"/><path fill="#ffffff" d="M 212.828125 17.652344 L 214.617188 14.320312 L 205.726562 20.597656 Z M 212.828125 17.652344 " fill-opacity="1" fill-rule="nonzero"/><path fill="#ffffff" d="M 205.160156 19.324219 L 205.957031 19.371094 L 205.5625 20.308594 L 214.234375 14.394531 L 212.769531 14.167969 L 212.941406 12.191406 L 205.160156 19.324219 " fill-opacity="1" fill-rule="nonzero"/><path fill="#ffffff" d="M 205.285156 17.945312 L 204.851562 19.1875 L 212.890625 12.144531 L 211.589844 12.015625 L 211.496094 10.480469 L 204.199219 18.238281 L 205.285156 17.945312 " fill-opacity="1" fill-rule="nonzero"/><g clip-path="url(#6f1aa2c298)"><path fill="#ffffff" d="M 204.085938 9.300781 L 201.46875 16.53125 L 207.332031 7.363281 Z M 204.085938 9.300781 " fill-opacity="1" fill-rule="nonzero"/></g><g clip-path="url(#24574b1db0)"><path fill="#ffffff" d="M 201.765625 16.679688 L 202.6875 16.246094 L 202.765625 17.039062 L 209.535156 8.941406 L 207.570312 9.199219 L 207.277344 7.75 L 201.765625 16.679688 " fill-opacity="1" fill-rule="nonzero"/></g><path fill="#ffffff" d="M 203.113281 22.8125 C 203.203125 22.714844 203.292969 22.613281 203.367188 22.503906 L 199.671875 18.976562 C 199.570312 19.058594 199.46875 19.144531 199.375 19.242188 C 198.339844 20.328125 198.339844 22.003906 199.371094 22.988281 C 200.402344 23.976562 202.078125 23.894531 203.113281 22.8125 " fill-opacity="1" fill-rule="nonzero"/><path fill="#ffffff" d="M 204.140625 16.851562 L 203.898438 17.953125 L 211.308594 10.304688 L 209.773438 10.28125 L 209.589844 8.988281 L 202.917969 17.339844 L 204.140625 16.851562 " fill-opacity="1" fill-rule="nonzero"/><path fill="#ffffff" d="M 201.675781 18.871094 L 202.148438 17.863281 L 202.386719 18.09375 L 201.726562 18.925781 Z M 201.074219 18.300781 L 201.695312 16.953125 L 201.917969 17.613281 L 201.433594 18.644531 Z M 202.613281 18.308594 L 203.140625 18.8125 L 202.410156 19.578125 L 201.957031 19.144531 Z M 203.371094 19.03125 L 203.898438 19.539062 L 203.09375 20.230469 L 202.640625 19.796875 Z M 204.363281 19.980469 L 203.378906 20.5 L 203.320312 20.449219 L 204.125 19.753906 Z M 204.632812 20.191406 L 205.316406 20.378906 L 203.976562 21.074219 L 203.617188 20.730469 Z M 203.8125 22.078125 L 204.21875 21.304688 L 204.21875 21.300781 L 205.527344 20.621094 C 205.523438 20.582031 205.53125 20.542969 205.550781 20.503906 C 205.507812 20.503906 205.46875 20.488281 205.4375 20.460938 C 205.433594 20.457031 205.429688 20.457031 205.425781 20.449219 C 205.367188 20.394531 205.347656 20.304688 205.378906 20.230469 L 205.4375 20.089844 L 205.039062 19.976562 L 205.609375 19.675781 L 205.664062 19.554688 L 205.21875 19.53125 L 204.65625 19.824219 L 204.363281 19.546875 L 204.675781 19.277344 C 204.652344 19.230469 204.648438 19.175781 204.664062 19.121094 L 204.789062 18.761719 L 204.132812 19.332031 L 203.585938 18.804688 L 204.027344 18.34375 C 204.027344 18.34375 204.027344 18.339844 204.027344 18.339844 C 203.980469 18.269531 203.988281 18.183594 204.039062 18.117188 L 204.027344 18.105469 C 203.960938 18.15625 203.875 18.167969 203.800781 18.128906 C 203.800781 18.128906 203.800781 18.125 203.800781 18.125 L 203.359375 18.589844 L 202.808594 18.0625 L 203.34375 17.382812 L 202.992188 17.523438 C 202.941406 17.546875 202.886719 17.542969 202.835938 17.523438 L 202.582031 17.84375 L 202.289062 17.566406 L 202.558594 16.992188 L 202.515625 16.546875 L 202.394531 16.601562 L 202.113281 17.203125 L 201.976562 16.804688 L 201.855469 16.863281 C 201.777344 16.898438 201.6875 16.882812 201.628906 16.828125 C 201.625 16.824219 201.621094 16.820312 201.621094 16.816406 C 201.589844 16.785156 201.574219 16.742188 201.570312 16.703125 C 201.535156 16.722656 201.492188 16.734375 201.453125 16.730469 L 200.832031 18.070312 L 200.074219 18.511719 L 201.945312 20.292969 L 203.8125 22.078125 " fill-opacity="1" fill-rule="nonzero"/><g clip-path="url(#f66d0fff14)"><path fill="#ffffff" d="M 205.027344 210.628906 C 205.027344 210.628906 203.042969 210.457031 202.988281 210.289062 C 202.929688 210.121094 202.703125 206.660156 202.703125 206.660156 L 201.742188 206.210938 L 201.742188 203.316406 L 202.261719 203.316406 C 203.789062 203.316406 205.027344 204.554688 205.027344 206.085938 Z M 148.347656 66.875 C 148.292969 66.828125 148.214844 66.828125 148.164062 66.878906 L 148.113281 66.933594 C 147.699219 66.578125 147.3125 66.199219 146.957031 65.789062 L 147.128906 65.5 L 148.929688 66.566406 L 148.609375 67.109375 C 148.496094 67.011719 148.40625 66.929688 148.347656 66.875 Z M 146.039062 64.574219 C 145.847656 64.285156 145.667969 63.984375 145.5 63.675781 L 146.285156 62.339844 L 148.085938 63.40625 L 147.042969 65.167969 Z M 146.792969 65.59375 C 146.648438 65.417969 146.503906 65.238281 146.367188 65.050781 L 146.921875 65.375 Z M 144.492188 61.28125 L 146.078125 62.214844 L 145.363281 63.425781 C 145.015625 62.75 144.726562 62.03125 144.492188 61.28125 Z M 145.464844 59.148438 L 147.261719 60.210938 L 146.199219 62.007812 L 144.402344 60.945312 Z M 143.867188 58.203125 L 145.253906 59.023438 L 144.304688 60.632812 C 144.097656 59.851562 143.953125 59.039062 143.867188 58.203125 Z M 143.800781 57.378906 L 144.640625 55.953125 L 146.441406 57.015625 L 145.378906 58.8125 L 143.835938 57.902344 C 143.820312 57.730469 143.808594 57.554688 143.800781 57.378906 Z M 143.792969 55.453125 L 144.433594 55.828125 L 143.78125 56.9375 C 143.765625 56.449219 143.769531 55.953125 143.792969 55.453125 Z M 144.085938 52.914062 L 145.617188 53.820312 L 144.554688 55.621094 L 143.808594 55.179688 C 143.855469 54.433594 143.949219 53.675781 144.085938 52.914062 Z M 144.269531 51.996094 L 145.003906 50.75 L 146.804688 51.8125 L 145.742188 53.609375 L 144.132812 52.660156 C 144.171875 52.4375 144.21875 52.21875 144.269531 51.996094 Z M 144.652344 50.539062 L 144.796875 50.625 L 144.46875 51.183594 C 144.527344 50.96875 144.589844 50.753906 144.652344 50.539062 Z M 145.453125 48.304688 L 145.984375 48.621094 L 144.917969 50.417969 L 144.722656 50.300781 C 144.933594 49.636719 145.175781 48.96875 145.453125 48.304688 Z M 146.464844 46.195312 L 147.167969 46.609375 L 146.105469 48.410156 L 145.550781 48.082031 C 145.824219 47.445312 146.128906 46.816406 146.464844 46.195312 Z M 146.890625 45.445312 C 147.140625 45.019531 147.40625 44.605469 147.679688 44.203125 L 148.355469 44.601562 L 147.292969 46.402344 L 146.582031 45.984375 C 146.683594 45.800781 146.785156 45.621094 146.890625 45.445312 Z M 149.089844 42.328125 L 149.539062 42.59375 L 148.476562 44.394531 L 147.816406 44.003906 C 148.21875 43.417969 148.644531 42.859375 149.089844 42.328125 Z M 150.71875 40.582031 L 150.726562 40.585938 L 149.664062 42.386719 L 149.25 42.140625 C 149.722656 41.589844 150.210938 41.070312 150.71875 40.582031 Z M 152.734375 41.769531 L 151.671875 43.570312 L 149.871094 42.507812 L 150.933594 40.707031 Z M 151.363281 39.984375 C 151.789062 39.609375 152.226562 39.25 152.667969 38.917969 L 153.96875 39.6875 L 152.859375 41.5625 L 151.058594 40.5 Z M 154.847656 37.496094 L 155.152344 37.675781 L 154.089844 39.476562 L 152.886719 38.765625 C 153.527344 38.296875 154.179688 37.871094 154.847656 37.496094 Z M 155.453125 37.171875 L 155.277344 37.46875 L 155.09375 37.359375 C 155.214844 37.292969 155.332031 37.234375 155.453125 37.171875 Z M 155.847656 36.976562 C 156.371094 36.726562 156.898438 36.503906 157.429688 36.3125 L 158.347656 36.855469 L 157.285156 38.65625 L 155.484375 37.589844 Z M 158.941406 35.847656 L 158.472656 36.644531 L 157.726562 36.207031 C 158.132812 36.070312 158.535156 35.953125 158.941406 35.847656 Z M 160.679688 35.523438 L 161.542969 36.035156 L 160.480469 37.832031 L 158.679688 36.769531 L 159.269531 35.769531 C 159.738281 35.664062 160.210938 35.578125 160.679688 35.523438 Z M 161.898438 35.429688 L 161.664062 35.824219 L 161.082031 35.480469 C 161.355469 35.453125 161.628906 35.4375 161.898438 35.429688 Z M 162.183594 35.425781 C 162.964844 35.417969 163.734375 35.488281 164.488281 35.632812 L 163.671875 37.011719 L 161.875 35.945312 Z M 166.328125 36.152344 L 166.746094 36.394531 L 165.683594 38.195312 L 163.882812 37.132812 L 164.738281 35.679688 C 165.277344 35.796875 165.808594 35.953125 166.328125 36.152344 Z M 168.832031 37.628906 L 167.769531 39.425781 L 165.890625 38.320312 L 166.953125 36.519531 Z M 169.457031 38 C 169.878906 38.355469 170.269531 38.746094 170.632812 39.164062 L 169.777344 40.617188 L 167.976562 39.550781 L 169.039062 37.75 Z M 172.09375 41.277344 L 171.785156 41.800781 L 169.984375 40.738281 L 170.800781 39.359375 C 171.289062 39.949219 171.71875 40.589844 172.09375 41.277344 Z M 172.574219 42.269531 L 171.992188 41.921875 L 172.226562 41.527344 C 172.351562 41.769531 172.464844 42.015625 172.574219 42.269531 Z M 173.195312 43.996094 L 172.605469 44.996094 L 170.808594 43.929688 L 171.871094 42.132812 L 172.730469 42.640625 C 172.910156 43.078125 173.0625 43.53125 173.195312 43.996094 Z M 173.558594 45.558594 L 172.816406 45.117188 L 173.285156 44.320312 C 173.390625 44.726562 173.484375 45.136719 173.558594 45.558594 Z M 173.792969 47.574219 L 173.429688 48.1875 L 171.628906 47.125 L 172.691406 45.328125 L 173.609375 45.871094 C 173.699219 46.425781 173.757812 46.996094 173.792969 47.574219 Z M 173.820312 48.417969 L 173.636719 48.3125 L 173.8125 48.019531 C 173.816406 48.152344 173.820312 48.285156 173.820312 48.417969 Z M 173.65625 51.03125 L 172.453125 50.320312 L 173.515625 48.523438 L 173.820312 48.703125 C 173.816406 49.464844 173.757812 50.246094 173.65625 51.03125 Z M 173.324219 52.957031 L 173.019531 53.46875 L 171.21875 52.40625 L 172.328125 50.527344 L 173.628906 51.296875 C 173.550781 51.847656 173.449219 52.398438 173.324219 52.957031 Z M 172.457031 55.84375 L 172.042969 55.601562 L 173.105469 53.800781 L 173.113281 53.808594 C 172.929688 54.488281 172.710938 55.167969 172.457031 55.84375 Z M 171.519531 58 L 170.855469 57.609375 L 171.917969 55.808594 L 172.371094 56.078125 C 172.117188 56.722656 171.835938 57.363281 171.519531 58 Z M 170.703125 59.507812 C 170.597656 59.6875 170.488281 59.859375 170.378906 60.035156 L 169.671875 59.617188 L 170.730469 57.816406 L 171.410156 58.21875 C 171.1875 58.652344 170.953125 59.082031 170.703125 59.507812 Z M 169.039062 61.953125 L 168.484375 61.625 L 169.546875 59.828125 L 170.25 60.242188 C 169.867188 60.839844 169.464844 61.410156 169.039062 61.953125 Z M 167.492188 63.75 L 167.296875 63.632812 L 168.359375 61.835938 L 168.890625 62.148438 C 168.445312 62.710938 167.976562 63.242188 167.492188 63.75 Z M 166.847656 64.398438 L 167.175781 63.84375 L 167.320312 63.929688 C 167.164062 64.085938 167.007812 64.246094 166.847656 64.398438 Z M 165.714844 65.40625 L 164.101562 64.457031 L 165.167969 62.65625 L 166.964844 63.71875 L 166.230469 64.96875 C 166.058594 65.117188 165.886719 65.261719 165.714844 65.40625 Z M 163.664062 66.90625 L 162.917969 66.464844 L 163.980469 64.664062 L 165.515625 65.570312 C 164.914062 66.058594 164.296875 66.503906 163.664062 66.90625 Z M 162.140625 67.777344 L 162.792969 66.671875 L 163.433594 67.050781 C 163.007812 67.3125 162.578125 67.554688 162.140625 67.777344 Z M 161.265625 68.199219 L 159.722656 67.289062 L 160.785156 65.488281 L 162.585938 66.550781 L 161.742188 67.976562 C 161.585938 68.050781 161.425781 68.125 161.265625 68.199219 Z M 158.648438 69.105469 L 159.601562 67.496094 L 160.988281 68.316406 C 160.214844 68.640625 159.433594 68.90625 158.648438 69.105469 Z M 156.527344 68.109375 L 157.589844 66.308594 L 159.390625 67.371094 L 158.328125 69.171875 Z M 155.691406 69.523438 L 156.40625 68.316406 L 157.992188 69.253906 C 157.222656 69.410156 156.453125 69.503906 155.691406 69.523438 Z M 154.359375 69.488281 L 153.355469 68.894531 L 154.398438 67.132812 L 156.195312 68.195312 L 155.410156 69.527344 C 155.058594 69.53125 154.707031 69.515625 154.359375 69.488281 Z M 153.105469 69.320312 L 153.234375 69.105469 L 153.78125 69.429688 C 153.554688 69.398438 153.328125 69.363281 153.105469 69.320312 Z M 152.851562 69.269531 C 152.316406 69.15625 151.789062 69 151.277344 68.804688 L 151.292969 68.734375 C 151.3125 68.664062 151.269531 68.59375 151.203125 68.574219 C 151.097656 68.542969 150.996094 68.507812 150.894531 68.472656 L 151.222656 67.917969 L 153.023438 68.980469 Z M 148.292969 63.527344 L 150.09375 64.589844 L 149.050781 66.351562 L 147.253906 65.292969 Z M 147.472656 60.332031 L 149.273438 61.394531 L 148.210938 63.195312 L 146.410156 62.132812 Z M 146.648438 57.136719 L 148.449219 58.203125 L 147.386719 60 L 145.585938 58.9375 Z M 147.628906 55.007812 L 146.566406 56.804688 L 144.765625 55.742188 L 145.828125 53.945312 Z M 147.015625 51.933594 L 148.8125 53 L 147.75 54.796875 L 145.953125 53.734375 Z M 147.992188 49.804688 L 146.929688 51.605469 L 145.128906 50.539062 L 146.191406 48.742188 Z M 149.175781 47.796875 L 148.113281 49.597656 L 146.316406 48.53125 L 147.378906 46.734375 Z M 150.363281 45.789062 L 149.300781 47.589844 L 147.5 46.527344 L 148.5625 44.726562 Z M 150.488281 45.578125 L 148.6875 44.515625 L 149.75 42.71875 L 151.550781 43.777344 Z M 153.558594 44.964844 L 152.496094 46.765625 L 150.695312 45.703125 L 151.757812 43.902344 Z M 154.742188 42.957031 L 153.679688 44.753906 L 151.882812 43.695312 L 152.945312 41.894531 Z M 155.976562 40.871094 L 154.867188 42.75 L 153.066406 41.6875 L 154.175781 39.808594 Z M 156.097656 40.664062 L 154.300781 39.597656 L 155.363281 37.800781 L 157.160156 38.863281 Z M 159.171875 40.046875 L 158.105469 41.847656 L 156.308594 40.785156 L 157.371094 38.988281 Z M 159.292969 39.839844 L 157.492188 38.777344 L 158.554688 36.976562 L 160.355469 38.039062 Z M 162.363281 39.226562 L 161.300781 41.023438 L 159.5 39.964844 L 160.566406 38.164062 Z M 162.488281 39.019531 L 160.6875 37.957031 L 161.75 36.15625 L 163.550781 37.21875 Z M 164.496094 40.203125 L 162.695312 39.140625 L 163.757812 37.339844 L 165.558594 38.402344 Z M 166.582031 41.4375 L 164.703125 40.328125 L 165.765625 38.527344 L 167.644531 39.636719 Z M 168.589844 42.621094 L 166.789062 41.558594 L 167.851562 39.757812 L 169.652344 40.820312 Z M 170.597656 43.808594 L 168.800781 42.746094 L 169.863281 40.945312 L 171.660156 42.007812 Z M 171.421875 47 L 169.621094 45.941406 L 170.683594 44.140625 L 172.484375 45.203125 Z M 170.445312 49.132812 L 171.507812 47.332031 L 173.304688 48.398438 L 172.242188 50.199219 Z M 171.011719 52.28125 L 169.210938 51.222656 L 170.320312 49.34375 L 172.121094 50.40625 Z M 170.035156 54.414062 L 171.097656 52.613281 L 172.894531 53.679688 L 171.832031 55.480469 Z M 168.847656 56.421875 L 169.910156 54.625 L 171.710938 55.683594 L 170.648438 57.484375 Z M 167.660156 58.433594 L 168.722656 56.632812 L 170.523438 57.695312 L 169.460938 59.492188 Z M 166.476562 60.441406 L 167.539062 58.640625 L 169.335938 59.703125 L 168.273438 61.503906 Z M 166.351562 60.648438 L 168.152344 61.710938 L 167.089844 63.511719 L 165.289062 62.445312 Z M 163.28125 61.261719 L 164.34375 59.460938 L 166.144531 60.523438 L 165.082031 62.324219 Z M 162.09375 63.269531 L 163.160156 61.46875 L 164.957031 62.535156 L 163.894531 64.332031 Z M 161.972656 63.480469 L 163.773438 64.539062 L 162.707031 66.339844 L 160.910156 65.277344 Z M 158.902344 64.09375 L 159.964844 62.292969 L 161.761719 63.355469 L 160.699219 65.15625 Z M 158.777344 64.300781 L 160.578125 65.363281 L 159.515625 67.164062 L 157.714844 66.101562 Z M 155.707031 64.914062 L 156.769531 63.113281 L 158.570312 64.175781 L 157.507812 65.976562 Z M 155.582031 65.121094 L 157.382812 66.1875 L 156.320312 67.984375 L 154.519531 66.921875 Z M 152.511719 65.738281 L 153.574219 63.9375 L 155.375 65 L 154.3125 66.796875 Z M 152.390625 65.945312 L 154.1875 67.007812 L 153.148438 68.773438 L 151.347656 67.710938 Z M 150.300781 64.714844 L 152.179688 65.820312 L 151.136719 67.585938 L 149.261719 66.476562 Z M 149.480469 61.519531 L 151.28125 62.582031 L 150.21875 64.382812 L 148.417969 63.316406 Z M 148.65625 58.324219 L 150.457031 59.386719 L 149.394531 61.1875 L 147.59375 60.125 Z M 149.636719 56.191406 L 148.574219 57.992188 L 146.773438 56.929688 L 147.835938 55.132812 Z M 149.023438 53.121094 L 150.820312 54.183594 L 149.757812 55.984375 L 147.960938 54.921875 Z M 150 50.992188 L 148.9375 52.789062 L 147.136719 51.726562 L 148.199219 49.929688 Z M 151.1875 48.980469 L 150.121094 50.78125 L 148.324219 49.71875 L 149.386719 47.917969 Z M 151.308594 48.773438 L 149.507812 47.710938 L 150.570312 45.910156 L 152.371094 46.972656 Z M 154.378906 48.160156 L 153.316406 49.957031 L 151.515625 48.898438 L 152.582031 47.097656 Z M 155.566406 46.152344 L 154.503906 47.949219 L 152.703125 46.886719 L 153.765625 45.089844 Z M 156.75 44.144531 L 155.6875 45.945312 L 153.890625 44.878906 L 154.953125 43.078125 Z M 156.875 43.9375 L 155.074219 42.871094 L 156.183594 40.996094 L 157.984375 42.058594 Z M 159.992188 43.242188 L 158.882812 45.121094 L 157.082031 44.058594 L 158.191406 42.179688 Z M 160.117188 43.035156 L 158.316406 41.972656 L 159.378906 40.171875 L 161.179688 41.234375 Z M 163.1875 42.421875 L 162.125 44.21875 L 160.324219 43.15625 L 161.386719 41.359375 Z M 163.308594 42.210938 L 161.511719 41.148438 L 162.574219 39.347656 L 164.371094 40.414062 Z M 165.394531 43.445312 L 163.519531 42.335938 L 164.582031 40.535156 L 166.457031 41.644531 Z M 167.40625 44.628906 L 165.605469 43.566406 L 166.667969 41.769531 L 168.46875 42.832031 Z M 169.414062 45.816406 L 167.613281 44.753906 L 168.675781 42.953125 L 170.476562 44.015625 Z M 168.433594 47.949219 L 169.496094 46.148438 L 171.296875 47.210938 L 170.234375 49.011719 Z M 169.003906 51.097656 L 167.203125 50.035156 L 168.3125 48.15625 L 170.109375 49.21875 Z M 168.027344 53.230469 L 169.089844 51.429688 L 170.886719 52.492188 L 169.824219 54.289062 Z M 166.839844 55.238281 L 167.902344 53.4375 L 169.703125 54.5 L 168.640625 56.300781 Z M 165.652344 57.246094 L 166.714844 55.445312 L 168.515625 56.507812 L 167.453125 58.308594 Z M 165.53125 57.453125 L 167.328125 58.515625 L 166.265625 60.316406 L 164.46875 59.253906 Z M 162.457031 58.066406 L 163.519531 56.265625 L 165.320312 57.332031 L 164.257812 59.128906 Z M 161.273438 60.074219 L 162.335938 58.277344 L 164.136719 59.339844 L 163.074219 61.136719 Z M 161.148438 60.285156 L 162.949219 61.347656 L 161.886719 63.144531 L 160.085938 62.085938 Z M 158.078125 60.898438 L 159.140625 59.097656 L 160.941406 60.160156 L 159.878906 61.960938 Z M 157.957031 61.105469 L 159.753906 62.167969 L 158.691406 63.96875 L 156.890625 62.90625 Z M 154.882812 61.71875 L 155.945312 59.917969 L 157.746094 60.984375 L 156.683594 62.785156 Z M 154.761719 61.929688 L 156.5625 62.992188 L 155.496094 64.792969 L 153.699219 63.726562 Z M 151.613281 62.496094 L 152.675781 60.695312 L 154.550781 61.804688 L 153.488281 63.605469 Z M 151.488281 62.707031 L 153.367188 63.8125 L 152.304688 65.613281 L 150.425781 64.503906 Z M 150.667969 59.511719 L 152.464844 60.574219 L 151.402344 62.375 L 149.605469 61.308594 Z M 151.644531 57.378906 L 150.582031 59.179688 L 148.78125 58.117188 L 149.84375 56.316406 Z M 151.03125 54.308594 L 152.828125 55.371094 L 151.765625 57.171875 L 149.96875 56.109375 Z M 152.007812 52.175781 L 150.945312 53.976562 L 149.144531 52.914062 L 150.207031 51.113281 Z M 152.128906 51.96875 L 150.332031 50.90625 L 151.394531 49.105469 L 153.195312 50.167969 Z M 155.203125 51.351562 L 154.140625 53.152344 L 152.339844 52.089844 L 153.402344 50.292969 Z M 156.386719 49.347656 L 155.324219 51.148438 L 153.527344 50.082031 L 154.589844 48.28125 Z M 157.574219 47.335938 L 156.511719 49.136719 L 154.710938 48.074219 L 155.773438 46.273438 Z M 157.695312 47.128906 L 155.898438 46.066406 L 156.960938 44.265625 L 158.761719 45.328125 Z M 160.769531 46.515625 L 159.707031 48.316406 L 157.90625 47.253906 L 158.96875 45.453125 Z M 160.890625 46.304688 L 159.09375 45.246094 L 160.199219 43.367188 L 162 44.429688 Z M 164.085938 45.660156 L 162.976562 47.539062 L 161.101562 46.429688 L 162.210938 44.550781 Z M 164.210938 45.453125 L 162.332031 44.34375 L 163.394531 42.542969 L 165.273438 43.652344 Z M 166.21875 46.640625 L 164.417969 45.578125 L 165.480469 43.777344 L 167.28125 44.839844 Z M 166.425781 46.761719 L 167.492188 44.960938 L 169.289062 46.023438 L 168.226562 47.824219 Z M 166.992188 49.910156 L 165.195312 48.847656 L 166.304688 46.972656 L 168.105469 48.035156 Z M 166.015625 52.042969 L 167.078125 50.242188 L 168.878906 51.304688 L 167.816406 53.105469 Z M 164.832031 54.050781 L 165.894531 52.253906 L 167.691406 53.3125 L 166.632812 55.113281 Z M 164.707031 54.261719 L 166.507812 55.320312 L 165.445312 57.121094 L 163.644531 56.058594 Z M 161.636719 54.875 L 162.699219 53.074219 L 164.5 54.136719 L 163.4375 55.933594 Z M 160.449219 56.882812 L 161.515625 55.082031 L 163.3125 56.144531 L 162.25 57.941406 Z M 160.328125 57.089844 L 162.125 58.152344 L 161.0625 59.953125 L 159.265625 58.890625 Z M 157.257812 57.703125 L 158.320312 55.90625 L 160.121094 56.964844 L 159.054688 58.765625 Z M 157.132812 57.914062 L 158.933594 58.976562 L 157.871094 60.777344 L 156.070312 59.710938 Z M 153.984375 58.480469 L 155.046875 56.679688 L 156.925781 57.789062 L 155.863281 59.589844 Z M 153.859375 58.6875 L 155.738281 59.796875 L 154.675781 61.59375 L 152.796875 60.488281 Z M 153.652344 58.566406 L 152.589844 60.363281 L 150.789062 59.300781 L 151.851562 57.503906 Z M 153.039062 55.496094 L 154.839844 56.554688 L 153.773438 58.355469 L 151.976562 57.292969 Z M 152.953125 55.160156 L 151.152344 54.101562 L 152.214844 52.300781 L 154.015625 53.363281 Z M 156.023438 54.550781 L 154.960938 56.347656 L 153.160156 55.285156 L 154.226562 53.484375 Z M 157.210938 52.539062 L 156.148438 54.339844 L 154.347656 53.277344 L 155.410156 51.476562 Z M 158.394531 50.53125 L 157.332031 52.332031 L 155.535156 51.269531 L 156.597656 49.46875 Z M 158.519531 50.324219 L 156.71875 49.261719 L 157.78125 47.460938 L 159.582031 48.523438 Z M 161.667969 49.757812 L 160.605469 51.554688 L 158.726562 50.449219 L 159.789062 48.648438 Z M 161.792969 49.546875 L 159.914062 48.4375 L 160.976562 46.640625 L 162.855469 47.75 Z M 164.863281 48.933594 L 163.800781 50.734375 L 162 49.671875 L 163.0625 47.871094 Z M 164.984375 48.726562 L 163.1875 47.660156 L 164.296875 45.785156 L 166.09375 46.847656 Z M 164.007812 50.855469 L 165.070312 49.058594 L 166.871094 50.121094 L 165.808594 51.917969 Z M 163.886719 51.0625 L 165.683594 52.128906 L 164.621094 53.929688 L 162.824219 52.863281 Z M 160.816406 51.679688 L 161.878906 49.878906 L 163.675781 50.941406 L 162.613281 52.742188 Z M 159.628906 53.6875 L 160.691406 51.886719 L 162.492188 52.953125 L 161.429688 54.75 Z M 159.503906 53.894531 L 161.304688 54.957031 L 160.242188 56.757812 L 158.441406 55.695312 Z M 157.542969 52.453125 L 158.605469 50.65625 L 160.480469 51.765625 L 159.421875 53.5625 Z M 158.109375 55.78125 L 157.046875 57.582031 L 155.167969 56.472656 L 156.234375 54.671875 Z M 156.355469 54.464844 L 157.417969 52.664062 L 159.296875 53.773438 L 158.234375 55.574219 Z M 150.667969 68.382812 C 149.894531 68.066406 149.230469 67.605469 148.796875 67.261719 L 149.136719 66.6875 L 151.015625 67.796875 Z M 258.476562 36.089844 C 258.191406 35.683594 257.605469 35.621094 257.203125 35.910156 L 254.386719 37.894531 C 254.050781 38.136719 253.628906 38.261719 253.21875 38.191406 C 252.394531 38.039062 252.320312 37.253906 252.464844 36.488281 C 252.632812 35.601562 253.097656 34.800781 253.734375 34.160156 L 256.304688 31.570312 C 256.496094 31.375 256.53125 31.074219 256.378906 30.84375 C 256.203125 30.570312 255.835938 30.488281 255.566406 30.671875 C 254.847656 31.15625 254.226562 31.71875 254.226562 31.71875 L 252.117188 33.351562 C 251.753906 33.632812 251.214844 33.476562 251.074219 33.039062 C 250.964844 32.714844 250.976562 32.296875 251.335938 31.832031 C 252.1875 30.730469 251.703125 28.234375 251.703125 28.234375 C 253.101562 27.894531 253 26.910156 253 26.910156 L 251.371094 27.25 C 250.523438 25.871094 250.371094 27.25 250.371094 27.25 C 250.296875 28.082031 249.238281 29.308594 249.238281 29.308594 C 248.160156 31.632812 248.105469 37.984375 248.105469 37.984375 C 246.972656 39.738281 246.289062 42.855469 246.289062 42.855469 L 236.351562 58.652344 C 229.097656 63.335938 228.117188 70.367188 228.117188 70.367188 C 221.316406 83.515625 205.933594 87.976562 205.933594 87.976562 C 205.933594 87.976562 206.5 87.519531 204.914062 86.3125 C 203.777344 85.445312 203.851562 84.15625 203.984375 83.492188 C 204.03125 83.265625 203.867188 83.050781 203.636719 83.042969 L 203.164062 83.023438 C 202.992188 83.015625 202.894531 82.820312 203 82.679688 L 203.3125 82.253906 C 203.429688 82.09375 203.398438 81.867188 203.242188 81.746094 C 202.027344 80.777344 202.402344 79.242188 203.132812 78.394531 C 203.445312 78.03125 203.402344 77.476562 203.03125 77.179688 C 202.460938 76.726562 201.476562 76.152344 199.925781 75.902344 C 197.761719 75.546875 195.425781 72.25 194.5 70.8125 C 194.300781 70.5 194.484375 70.085938 194.851562 70.027344 L 195.449219 69.933594 C 195.8125 69.875 195.898438 69.390625 195.578125 69.214844 C 193.324219 67.976562 187.542969 65.132812 183.601562 66.207031 C 178.613281 67.570312 173.402344 73.917969 173.402344 73.917969 C 173.402344 73.917969 168.640625 81.171875 173.96875 87.519531 C 179.296875 93.867188 184.964844 96.363281 184.964844 96.363281 L 186.703125 97.761719 C 186.171875 99.082031 187.457031 99.761719 187.457031 99.761719 L 187.683594 102.03125 C 187.683594 102.03125 172.945312 106.71875 171.585938 109.511719 C 171.015625 110.683594 169.890625 112.207031 168.769531 113.582031 C 166.988281 115.777344 164.800781 117.601562 162.324219 118.96875 L 152.769531 124.25 C 152.769531 124.25 148.234375 120.394531 144.71875 119.261719 C 141.207031 118.128906 133.308594 110.457031 133.308594 110.457031 C 132.046875 109.136719 132.519531 107.917969 132.871094 107.351562 C 133.035156 107.09375 133.113281 106.792969 133.105469 106.488281 L 133 102.738281 C 132.984375 102.226562 132.578125 101.828125 132.085938 101.796875 C 132.242188 101.566406 132.398438 101.335938 132.558594 101.109375 C 132.753906 100.824219 132.882812 100.507812 132.941406 100.167969 L 133.625 96.113281 L 147.984375 71.800781 C 148.140625 71.535156 148.359375 71.320312 148.601562 71.136719 C 148.664062 71.089844 148.71875 71.027344 148.761719 70.957031 L 149.65625 69.441406 C 150.027344 69.621094 150.425781 69.785156 150.847656 69.90625 C 150.917969 69.925781 150.988281 69.882812 151.007812 69.8125 C 154.050781 70.941406 157.539062 70.8125 161.046875 69.414062 C 165.269531 67.734375 169.015625 64.402344 171.59375 60.035156 C 174.171875 55.667969 175.28125 50.777344 174.71875 46.269531 C 174.144531 41.710938 171.9375 38.082031 168.496094 36.046875 C 165.058594 34.015625 160.8125 33.835938 156.542969 35.535156 C 152.324219 37.21875 148.578125 40.550781 146 44.917969 C 143.421875 49.285156 142.3125 54.171875 142.875 58.683594 C 143.34375 62.429688 144.917969 65.546875 147.371094 67.664062 L 147.371094 67.667969 C 147.316406 67.71875 147.320312 67.804688 147.375 67.855469 C 147.53125 68.003906 147.878906 68.3125 148.359375 68.660156 L 147.457031 70.1875 C 147.414062 70.257812 147.386719 70.335938 147.378906 70.414062 C 147.332031 70.714844 147.25 71.011719 147.09375 71.277344 L 132.734375 95.585938 L 129.515625 98.140625 C 129.28125 98.332031 129.089844 98.570312 128.945312 98.835938 C 128.734375 98.015625 128.335938 97.625 127.910156 97.472656 C 127.132812 97.191406 126.3125 97.78125 126.257812 98.605469 L 126.199219 99.519531 C 126.183594 99.75 125.949219 99.894531 125.738281 99.8125 C 123.804688 99.097656 123.707031 100.132812 123.816406 100.792969 C 123.847656 100.984375 123.664062 101.132812 123.484375 101.070312 C 122.523438 100.734375 122.464844 101.464844 122.464844 101.464844 L 122.722656 103.125 C 122.769531 103.425781 122.578125 103.710938 122.28125 103.785156 L 122.050781 103.84375 C 119.898438 106.867188 120.640625 109.097656 122.101562 110.644531 C 121.871094 110.984375 121.644531 111.324219 121.410156 111.664062 C 121.078125 112.140625 121.222656 112.792969 121.722656 113.089844 L 123.613281 114.207031 C 124.113281 114.5 124.757812 114.308594 125.011719 113.785156 C 125.160156 113.488281 125.316406 113.191406 125.46875 112.890625 C 126.1875 113.210938 126.695312 113.367188 126.695312 113.367188 C 136.671875 129.011719 146.648438 134.679688 146.648438 134.679688 L 148.417969 136.296875 C 150 137.742188 152.296875 138.097656 154.246094 137.199219 L 174.757812 127.710938 C 176.234375 127.027344 177.972656 127.265625 179.210938 128.320312 L 180.917969 129.773438 C 183.214844 131.730469 184.628906 134.535156 184.816406 137.546875 C 184.96875 140.085938 184.929688 142.453125 184.761719 144.628906 C 185.605469 145.535156 186.695312 146.46875 187.988281 147.035156 C 187.988281 147.035156 186.519531 146.929688 184.691406 145.433594 C 184.175781 150.957031 182.851562 155.15625 181.875 157.628906 C 182.3125 158.355469 184.164062 161.210938 186.898438 162.402344 C 186.898438 162.402344 184.148438 162.207031 181.503906 158.527344 C 181.046875 159.585938 180.730469 160.144531 180.730469 160.144531 L 178.210938 164.089844 C 177.617188 165.019531 177.566406 166.1875 178.074219 167.164062 L 178.582031 168.144531 C 179.191406 169.316406 179.269531 170.714844 178.707031 171.910156 C 175.71875 178.253906 178.160156 195.550781 178.160156 195.550781 L 177.40625 209.988281 L 174.03125 207.359375 C 173.265625 206.761719 172.582031 206.050781 172.113281 205.203125 C 171.171875 203.488281 169.320312 204.734375 169.320312 204.734375 L 161.9375 215.636719 C 161.613281 216.109375 161.003906 216.292969 160.476562 216.070312 L 147.28125 221.921875 C 146.808594 222.132812 146.253906 221.9375 146 221.488281 C 144.179688 218.265625 141.769531 217.660156 139.742188 217.90625 C 137.671875 218.15625 135.835938 219.367188 134.652344 221.082031 L 129.191406 228.992188 C 129.191406 228.992188 116.265625 239.535156 120.347656 246.789062 C 122.546875 250.699219 124.679688 251.054688 126.179688 250.550781 C 127.34375 250.160156 128.136719 249.121094 128.429688 247.925781 C 129.285156 244.445312 133.640625 240.453125 135.175781 239.132812 C 135.511719 238.84375 135.941406 238.683594 136.386719 238.683594 L 142.179688 238.683594 C 142.359375 238.683594 142.542969 238.660156 142.71875 238.605469 L 142.757812 238.597656 C 143.578125 238.355469 144.101562 237.597656 144.128906 236.742188 C 144.234375 233.0625 151.03125 231.640625 151.03125 231.640625 C 169.773438 231.789062 182.921875 227.859375 186.890625 227.859375 C 190.859375 227.859375 194.710938 222.871094 194.710938 222.871094 C 201.265625 222.824219 207.816406 223.300781 214.273438 224.394531 C 215.28125 224.5625 216.386719 224.648438 217.5 224.671875 C 221.882812 224.769531 225.449219 221.171875 225.304688 216.789062 L 225.09375 210.289062 L 227.472656 209.722656 L 219.308594 166.757812 C 219.734375 165.058594 221.847656 164.640625 223.371094 164.570312 C 224.101562 164.535156 224.582031 163.789062 224.292969 163.121094 C 220.953125 155.410156 222.257812 150.097656 222.257812 150.097656 C 223.40625 146.558594 222.351562 140.542969 221.828125 138.0625 C 220.675781 137.265625 219.0625 136.386719 217.3125 136.152344 C 217.3125 136.152344 219.070312 135.78125 221.617188 137.117188 C 221.59375 137.007812 221.578125 136.945312 221.578125 136.945312 C 222.9375 132.183594 221.011719 127.195312 221.011719 127.195312 C 221.011719 127.195312 218.121094 124.304688 214.71875 123.851562 C 214.71875 123.851562 217.503906 123.269531 221.148438 126.234375 C 222.03125 119.421875 221.0625 111.753906 220.152344 106.726562 C 219.488281 103.078125 220.261719 99.320312 222.335938 96.246094 L 235.179688 77.203125 C 237.5625 75.390625 243.683594 63.714844 243.683594 63.714844 L 251.542969 47.617188 C 253.148438 46.28125 253.855469 43.339844 254.128906 41.738281 C 254.253906 41.019531 254.621094 40.363281 255.183594 39.894531 L 258.320312 37.28125 C 258.667969 36.988281 258.746094 36.476562 258.476562 36.089844 " fill-opacity="1" fill-rule="nonzero"/></g><g transform="matrix(1, 0, 0, 1, 37, 263)"><g clip-path="url(#6ed200b7df)"><g fill="#ffffff" fill-opacity="1"><g transform="translate(2.144273, 55.780871)"><g><path d="M 37.5 0 L 28.203125 0 L 12.65625 -23.53125 L 12.65625 0 L 3.375 0 L 3.375 -38.15625 L 12.65625 -38.15625 L 28.203125 -14.515625 L 28.203125 -38.15625 L 37.5 -38.15625 Z M 37.5 0 "/></g></g></g><g fill="#ffffff" fill-opacity="1"><g transform="translate(44.078569, 55.780871)"><g><path d="M 12.65625 -30.703125 L 12.65625 -22.984375 L 25.109375 -22.984375 L 25.109375 -15.8125 L 12.65625 -15.8125 L 12.65625 -7.4375 L 26.734375 -7.4375 L 26.734375 0 L 3.375 0 L 3.375 -38.15625 L 26.734375 -38.15625 L 26.734375 -30.703125 Z M 12.65625 -30.703125 "/></g></g></g><g fill="#ffffff" fill-opacity="1"><g transform="translate(74.551681, 55.780871)"><g><path d="M 26.734375 0 L 18.96875 -11.6875 L 12.125 0 L 1.578125 0 L 13.796875 -19.40625 L 1.296875 -38.15625 L 12.125 -38.15625 L 19.78125 -26.625 L 26.515625 -38.15625 L 37.0625 -38.15625 L 24.9375 -18.90625 L 37.546875 0 Z M 26.734375 0 "/></g></g></g><g fill="#ffffff" fill-opacity="1"><g transform="translate(114.476196, 55.780871)"><g><path d="M 30.8125 -38.15625 L 30.8125 -30.703125 L 20.703125 -30.703125 L 20.703125 0 L 11.40625 0 L 11.40625 -30.703125 L 1.296875 -30.703125 L 1.296875 -38.15625 Z M 30.8125 -38.15625 "/></g></g></g><g fill="#ffffff" fill-opacity="1"><g transform="translate(147.665227, 55.780871)"><g><path d="M 17.171875 0.375 C 14.378906 0.375 11.878906 -0.078125 9.671875 -0.984375 C 7.460938 -1.890625 5.695312 -3.226562 4.375 -5 C 3.050781 -6.769531 2.351562 -8.90625 2.28125 -11.40625 L 12.171875 -11.40625 C 12.316406 -10 12.804688 -8.921875 13.640625 -8.171875 C 14.472656 -7.429688 15.5625 -7.0625 16.90625 -7.0625 C 18.28125 -7.0625 19.363281 -7.378906 20.15625 -8.015625 C 20.957031 -8.648438 21.359375 -9.53125 21.359375 -10.65625 C 21.359375 -11.59375 21.039062 -12.367188 20.40625 -12.984375 C 19.769531 -13.597656 18.988281 -14.101562 18.0625 -14.5 C 17.144531 -14.90625 15.832031 -15.363281 14.125 -15.875 C 11.664062 -16.632812 9.65625 -17.394531 8.09375 -18.15625 C 6.539062 -18.914062 5.203125 -20.035156 4.078125 -21.515625 C 2.953125 -23.003906 2.390625 -24.941406 2.390625 -27.328125 C 2.390625 -30.878906 3.675781 -33.660156 6.25 -35.671875 C 8.820312 -37.679688 12.171875 -38.6875 16.296875 -38.6875 C 20.503906 -38.6875 23.894531 -37.679688 26.46875 -35.671875 C 29.039062 -33.660156 30.414062 -30.863281 30.59375 -27.28125 L 20.546875 -27.28125 C 20.472656 -28.507812 20.019531 -29.476562 19.1875 -30.1875 C 18.351562 -30.894531 17.285156 -31.25 15.984375 -31.25 C 14.859375 -31.25 13.953125 -30.945312 13.265625 -30.34375 C 12.578125 -29.75 12.234375 -28.890625 12.234375 -27.765625 C 12.234375 -26.535156 12.8125 -25.578125 13.96875 -24.890625 C 15.125 -24.203125 16.9375 -23.457031 19.40625 -22.65625 C 21.863281 -21.820312 23.863281 -21.023438 25.40625 -20.265625 C 26.945312 -19.503906 28.273438 -18.398438 29.390625 -16.953125 C 30.515625 -15.503906 31.078125 -13.640625 31.078125 -11.359375 C 31.078125 -9.179688 30.523438 -7.203125 29.421875 -5.421875 C 28.316406 -3.648438 26.710938 -2.238281 24.609375 -1.1875 C 22.515625 -0.144531 20.035156 0.375 17.171875 0.375 Z M 17.171875 0.375 "/></g></g></g><g fill="#ffffff" fill-opacity="1"><g transform="translate(182.157883, 55.780871)"><g><path d="M 36.40625 -38.15625 L 36.40625 0 L 27.125 0 L 27.125 -15.703125 L 12.65625 -15.703125 L 12.65625 0 L 3.375 0 L 3.375 -38.15625 L 12.65625 -38.15625 L 12.65625 -23.203125 L 27.125 -23.203125 L 27.125 -38.15625 Z M 36.40625 -38.15625 "/></g></g></g><g fill="#ffffff" fill-opacity="1"><g transform="translate(222.951482, 55.780871)"><g><path d="M 21.40625 0.375 C 17.820312 0.375 14.535156 -0.457031 11.546875 -2.125 C 8.554688 -3.789062 6.179688 -6.113281 4.421875 -9.09375 C 2.671875 -12.082031 1.796875 -15.445312 1.796875 -19.1875 C 1.796875 -22.914062 2.671875 -26.265625 4.421875 -29.234375 C 6.179688 -32.203125 8.554688 -34.519531 11.546875 -36.1875 C 14.535156 -37.851562 17.820312 -38.6875 21.40625 -38.6875 C 25 -38.6875 28.289062 -37.851562 31.28125 -36.1875 C 34.269531 -34.519531 36.625 -32.203125 38.34375 -29.234375 C 40.0625 -26.265625 40.921875 -22.914062 40.921875 -19.1875 C 40.921875 -15.445312 40.050781 -12.082031 38.3125 -9.09375 C 36.570312 -6.113281 34.21875 -3.789062 31.25 -2.125 C 28.28125 -0.457031 25 0.375 21.40625 0.375 Z M 21.40625 -8.09375 C 24.445312 -8.09375 26.882812 -9.109375 28.71875 -11.140625 C 30.550781 -13.171875 31.46875 -15.851562 31.46875 -19.1875 C 31.46875 -22.550781 30.550781 -25.238281 28.71875 -27.25 C 26.882812 -29.257812 24.445312 -30.265625 21.40625 -30.265625 C 18.332031 -30.265625 15.878906 -29.269531 14.046875 -27.28125 C 12.210938 -25.289062 11.296875 -22.59375 11.296875 -19.1875 C 11.296875 -15.8125 12.210938 -13.117188 14.046875 -11.109375 C 15.878906 -9.097656 18.332031 -8.09375 21.40625 -8.09375 Z M 21.40625 -8.09375 "/></g></g></g><g fill="#ffffff" fill-opacity="1"><g transform="translate(266.732593, 55.780871)"><g><path d="M 30.8125 -38.15625 L 30.8125 -30.703125 L 20.703125 -30.703125 L 20.703125 0 L 11.40625 0 L 11.40625 -30.703125 L 1.296875 -30.703125 L 1.296875 -38.15625 Z M 30.8125 -38.15625 "/></g></g></g></g></g><g transform="matrix(1, 0, 0, 1, 50, 330)"><g clip-path="url(#1be588a7fd)"><g fill="#ffffff" fill-opacity="1"><g transform="translate(0.797233, 29.570526)"><g><path d="M 16.34375 -20.171875 L 9.78125 -7.609375 L 9.78125 0 L 7.140625 0 L 7.140625 -7.609375 L 0.546875 -20.171875 L 3.46875 -20.171875 L 8.453125 -9.953125 L 13.421875 -20.171875 Z M 16.34375 -20.171875 "/></g></g></g><g fill="#ffffff" fill-opacity="1"><g transform="translate(19.146305, 29.570526)"><g><path d="M 11.375 0.203125 C 9.5 0.203125 7.789062 -0.234375 6.25 -1.109375 C 4.707031 -1.992188 3.488281 -3.21875 2.59375 -4.78125 C 1.695312 -6.351562 1.25 -8.125 1.25 -10.09375 C 1.25 -12.0625 1.695312 -13.832031 2.59375 -15.40625 C 3.488281 -16.976562 4.707031 -18.203125 6.25 -19.078125 C 7.789062 -19.960938 9.5 -20.40625 11.375 -20.40625 C 13.257812 -20.40625 14.972656 -19.960938 16.515625 -19.078125 C 18.066406 -18.203125 19.285156 -16.984375 20.171875 -15.421875 C 21.054688 -13.859375 21.5 -12.082031 21.5 -10.09375 C 21.5 -8.113281 21.054688 -6.34375 20.171875 -4.78125 C 19.285156 -3.21875 18.066406 -1.992188 16.515625 -1.109375 C 14.972656 -0.234375 13.257812 0.203125 11.375 0.203125 Z M 11.375 -2.078125 C 12.78125 -2.078125 14.046875 -2.40625 15.171875 -3.0625 C 16.304688 -3.71875 17.195312 -4.65625 17.84375 -5.875 C 18.488281 -7.09375 18.8125 -8.5 18.8125 -10.09375 C 18.8125 -11.71875 18.488281 -13.128906 17.84375 -14.328125 C 17.195312 -15.535156 16.3125 -16.46875 15.1875 -17.125 C 14.070312 -17.78125 12.800781 -18.109375 11.375 -18.109375 C 9.945312 -18.109375 8.671875 -17.78125 7.546875 -17.125 C 6.429688 -16.46875 5.550781 -15.535156 4.90625 -14.328125 C 4.257812 -13.128906 3.9375 -11.71875 3.9375 -10.09375 C 3.9375 -8.5 4.257812 -7.09375 4.90625 -5.875 C 5.550781 -4.65625 6.4375 -3.71875 7.5625 -3.0625 C 8.695312 -2.40625 9.96875 -2.078125 11.375 -2.078125 Z M 11.375 -2.078125 "/></g></g></g><g fill="#ffffff" fill-opacity="1"><g transform="translate(43.341504, 29.570526)"><g><path d="M 4.796875 -20.171875 L 4.796875 -7.40625 C 4.796875 -5.613281 5.234375 -4.28125 6.109375 -3.40625 C 6.992188 -2.539062 8.21875 -2.109375 9.78125 -2.109375 C 11.320312 -2.109375 12.53125 -2.539062 13.40625 -3.40625 C 14.289062 -4.28125 14.734375 -5.613281 14.734375 -7.40625 L 14.734375 -20.171875 L 17.359375 -20.171875 L 17.359375 -7.4375 C 17.359375 -5.757812 17.019531 -4.34375 16.34375 -3.1875 C 15.675781 -2.039062 14.765625 -1.1875 13.609375 -0.625 C 12.460938 -0.0703125 11.175781 0.203125 9.75 0.203125 C 8.320312 0.203125 7.035156 -0.0703125 5.890625 -0.625 C 4.742188 -1.1875 3.835938 -2.039062 3.171875 -3.1875 C 2.503906 -4.34375 2.171875 -5.757812 2.171875 -7.4375 L 2.171875 -20.171875 Z M 4.796875 -20.171875 "/></g></g></g><g fill="#ffffff" fill-opacity="1"><g transform="translate(64.324225, 29.570526)"><g><path d="M 12.84375 0 L 8.046875 -8.25 L 4.859375 -8.25 L 4.859375 0 L 2.234375 0 L 2.234375 -20.171875 L 8.734375 -20.171875 C 10.265625 -20.171875 11.550781 -19.910156 12.59375 -19.390625 C 13.644531 -18.867188 14.429688 -18.160156 14.953125 -17.265625 C 15.472656 -16.378906 15.734375 -15.367188 15.734375 -14.234375 C 15.734375 -12.847656 15.332031 -11.625 14.53125 -10.5625 C 13.738281 -9.5 12.539062 -8.796875 10.9375 -8.453125 L 16 0 Z M 4.859375 -10.359375 L 8.734375 -10.359375 C 10.160156 -10.359375 11.226562 -10.707031 11.9375 -11.40625 C 12.65625 -12.113281 13.015625 -13.054688 13.015625 -14.234375 C 13.015625 -15.429688 12.660156 -16.359375 11.953125 -17.015625 C 11.253906 -17.671875 10.179688 -18 8.734375 -18 L 4.859375 -18 Z M 4.859375 -10.359375 "/></g></g></g><g fill="#ffffff" fill-opacity="1"><g transform="translate(83.367894, 29.570526)"><g/></g></g><g fill="#ffffff" fill-opacity="1"><g transform="translate(92.542597, 29.570526)"><g><path d="M 14.15625 -4.484375 L 5.359375 -4.484375 L 3.734375 0 L 0.953125 0 L 8.25 -20.046875 L 11.28125 -20.046875 L 18.546875 0 L 15.765625 0 Z M 13.390625 -6.625 L 9.75 -16.8125 L 6.109375 -6.625 Z M 13.390625 -6.625 "/></g></g></g><g fill="#ffffff" fill-opacity="1"><g transform="translate(113.496367, 29.570526)"><g><path d="M 4.859375 -20.171875 L 4.859375 0 L 2.234375 0 L 2.234375 -20.171875 Z M 4.859375 -20.171875 "/></g></g></g><g fill="#ffffff" fill-opacity="1"><g transform="translate(122.063309, 29.570526)"><g/></g></g><g fill="#ffffff" fill-opacity="1"><g transform="translate(131.238013, 29.570526)"><g><path d="M 8.625 0.203125 C 7.289062 0.203125 6.097656 -0.03125 5.046875 -0.5 C 3.992188 -0.976562 3.164062 -1.632812 2.5625 -2.46875 C 1.96875 -3.3125 1.664062 -4.28125 1.65625 -5.375 L 4.453125 -5.375 C 4.546875 -4.4375 4.9375 -3.644531 5.625 -3 C 6.3125 -2.351562 7.3125 -2.03125 8.625 -2.03125 C 9.875 -2.03125 10.859375 -2.34375 11.578125 -2.96875 C 12.304688 -3.59375 12.671875 -4.394531 12.671875 -5.375 C 12.671875 -6.15625 12.457031 -6.785156 12.03125 -7.265625 C 11.613281 -7.742188 11.082031 -8.109375 10.4375 -8.359375 C 9.800781 -8.609375 8.945312 -8.878906 7.875 -9.171875 C 6.539062 -9.515625 5.472656 -9.859375 4.671875 -10.203125 C 3.867188 -10.554688 3.179688 -11.101562 2.609375 -11.84375 C 2.046875 -12.59375 1.765625 -13.59375 1.765625 -14.84375 C 1.765625 -15.945312 2.039062 -16.921875 2.59375 -17.765625 C 3.15625 -18.617188 3.941406 -19.273438 4.953125 -19.734375 C 5.972656 -20.203125 7.140625 -20.4375 8.453125 -20.4375 C 10.335938 -20.4375 11.882812 -19.960938 13.09375 -19.015625 C 14.300781 -18.066406 14.984375 -16.8125 15.140625 -15.25 L 12.234375 -15.25 C 12.140625 -16.019531 11.734375 -16.695312 11.015625 -17.28125 C 10.304688 -17.875 9.363281 -18.171875 8.1875 -18.171875 C 7.09375 -18.171875 6.195312 -17.882812 5.5 -17.3125 C 4.800781 -16.75 4.453125 -15.957031 4.453125 -14.9375 C 4.453125 -14.195312 4.660156 -13.59375 5.078125 -13.125 C 5.492188 -12.664062 6.003906 -12.316406 6.609375 -12.078125 C 7.222656 -11.835938 8.078125 -11.5625 9.171875 -11.25 C 10.503906 -10.882812 11.570312 -10.523438 12.375 -10.171875 C 13.1875 -9.816406 13.882812 -9.265625 14.46875 -8.515625 C 15.050781 -7.773438 15.34375 -6.769531 15.34375 -5.5 C 15.34375 -4.507812 15.082031 -3.582031 14.5625 -2.71875 C 14.039062 -1.851562 13.265625 -1.148438 12.234375 -0.609375 C 11.210938 -0.0664062 10.007812 0.203125 8.625 0.203125 Z M 8.625 0.203125 "/></g></g></g><g fill="#ffffff" fill-opacity="1"><g transform="translate(149.673901, 29.570526)"><g><path d="M 17.765625 -20.171875 L 17.765625 0 L 15.140625 0 L 15.140625 -9.140625 L 4.859375 -9.140625 L 4.859375 0 L 2.234375 0 L 2.234375 -20.171875 L 4.859375 -20.171875 L 4.859375 -11.3125 L 15.140625 -11.3125 L 15.140625 -20.171875 Z M 17.765625 -20.171875 "/></g></g></g><g fill="#ffffff" fill-opacity="1"><g transform="translate(171.148617, 29.570526)"><g><path d="M 4.796875 -20.171875 L 4.796875 -7.40625 C 4.796875 -5.613281 5.234375 -4.28125 6.109375 -3.40625 C 6.992188 -2.539062 8.21875 -2.109375 9.78125 -2.109375 C 11.320312 -2.109375 12.53125 -2.539062 13.40625 -3.40625 C 14.289062 -4.28125 14.734375 -5.613281 14.734375 -7.40625 L 14.734375 -20.171875 L 17.359375 -20.171875 L 17.359375 -7.4375 C 17.359375 -5.757812 17.019531 -4.34375 16.34375 -3.1875 C 15.675781 -2.039062 14.765625 -1.1875 13.609375 -0.625 C 12.460938 -0.0703125 11.175781 0.203125 9.75 0.203125 C 8.320312 0.203125 7.035156 -0.0703125 5.890625 -0.625 C 4.742188 -1.1875 3.835938 -2.039062 3.171875 -3.1875 C 2.503906 -4.34375 2.171875 -5.757812 2.171875 -7.4375 L 2.171875 -20.171875 Z M 4.796875 -20.171875 "/></g></g></g><g fill="#ffffff" fill-opacity="1"><g transform="translate(192.131338, 29.570526)"><g><path d="M 14.640625 -20.171875 L 14.640625 -18.03125 L 9.140625 -18.03125 L 9.140625 0 L 6.515625 0 L 6.515625 -18.03125 L 0.984375 -18.03125 L 0.984375 -20.171875 Z M 14.640625 -20.171875 "/></g></g></g><g fill="#ffffff" fill-opacity="1"><g transform="translate(209.235936, 29.570526)"><g><path d="M 14.640625 -20.171875 L 14.640625 -18.03125 L 9.140625 -18.03125 L 9.140625 0 L 6.515625 0 L 6.515625 -18.03125 L 0.984375 -18.03125 L 0.984375 -20.171875 Z M 14.640625 -20.171875 "/></g></g></g><g fill="#ffffff" fill-opacity="1"><g transform="translate(226.340534, 29.570526)"><g><path d="M 4.859375 -2.140625 L 11.921875 -2.140625 L 11.921875 0 L 2.234375 0 L 2.234375 -20.171875 L 4.859375 -20.171875 Z M 4.859375 -2.140625 "/></g></g></g><g fill="#ffffff" fill-opacity="1"><g transform="translate(240.290537, 29.570526)"><g><path d="M 4.859375 -18.03125 L 4.859375 -11.28125 L 12.21875 -11.28125 L 12.21875 -9.109375 L 4.859375 -9.109375 L 4.859375 -2.171875 L 13.078125 -2.171875 L 13.078125 0 L 2.234375 0 L 2.234375 -20.203125 L 13.078125 -20.203125 L 13.078125 -18.03125 Z M 4.859375 -18.03125 "/></g></g></g><g fill="#ffffff" fill-opacity="1"><g transform="translate(256.584774, 29.570526)"><g><path d="M 12.84375 0 L 8.046875 -8.25 L 4.859375 -8.25 L 4.859375 0 L 2.234375 0 L 2.234375 -20.171875 L 8.734375 -20.171875 C 10.265625 -20.171875 11.550781 -19.910156 12.59375 -19.390625 C 13.644531 -18.867188 14.429688 -18.160156 14.953125 -17.265625 C 15.472656 -16.378906 15.734375 -15.367188 15.734375 -14.234375 C 15.734375 -12.847656 15.332031 -11.625 14.53125 -10.5625 C 13.738281 -9.5 12.539062 -8.796875 10.9375 -8.453125 L 16 0 Z M 4.859375 -10.359375 L 8.734375 -10.359375 C 10.160156 -10.359375 11.226562 -10.707031 11.9375 -11.40625 C 12.65625 -12.113281 13.015625 -13.054688 13.015625 -14.234375 C 13.015625 -15.429688 12.660156 -16.359375 11.953125 -17.015625 C 11.253906 -17.671875 10.179688 -18 8.734375 -18 L 4.859375 -18 Z M 4.859375 -10.359375 "/></g></g></g></g></g></svg>